:version 1.10
:name ASF
:units
  mass 1
  length 1
  angle deg
:documentation
  ASF file generated by Kaydara
:root
  axis xyz
  order  tx ty tz rx ry rz
  position 0 0 0
  orientation 0 0 0
:bonedata
  begin
    id 1
    name RightUpLegDummy
    direction -0.65628 -0.754516 0.00165102
    length 4.76918
    axis 0 0 0 xyz
  end
  begin
    id 2
    name RightUpLeg
    direction -0.145584 -0.923362 0.355256
    length 17.9961
    axis -24.7611 -13.1006 1.78531 xyz
    dof rx ry rz
  end
  begin
    id 3
    name RightLeg
    direction 0.263379 0.172355 -0.949171
    length 13.3386
    axis 89.6202 -21.1929 12.3855 xyz
    dof rx ry rz
  end
  begin
    id 4
    name RightFoot
    direction 0.224283 -0.968777 -0.105675
    length 5.86697
    axis 56.995 -39.6905 17.3365 xyz
    dof rx ry rz
  end
  begin
    id 5
    name RightToes
    direction -0.0806345 -0.9037 0.420506
    length 4.75197
    axis 146.825 -39.7828 17.6019 xyz
    dof rx ry rz
  end
  begin
    id 6
    name SpineDummy
    direction -3.39852e-014 1 9.33296e-014
    length 8.13779
    axis 0 0 0 xyz
  end
  begin
    id 7
    name Spine
    direction -0.156609 0.733703 0.661176
    length 7.14978
    axis 41.2365 5.68757 17.0844 xyz
    dof rx ry rz
  end
  begin
    id 8
    name Spine1
    direction 0 0 0
    length 0
    axis 42.8809 47.8308 -3.36039 xyz
    dof rx ry rz
  end
  begin
    id 9
    name HEadDummy
    direction 0.546431 0.701947 0.456819
    length 3.55512
    axis 42.8809 47.8308 -3.36039 xyz
  end
  begin
    id 10
    name HEad
    direction 0.23444 0.828559 0.508457
    length 7.35827
    axis 51.1864 49.2662 27.4903 xyz
    dof rx ry rz
  end
  begin
    id 11
    name LeftShoulder1Dummy
    direction 0.431183 0.475873 -0.766568
    length 2.49352
    axis 42.8809 47.8308 -3.36039 xyz
  end
  begin
    id 12
    name LeftShoulder1
    direction 0.268187 -0.383402 -0.883786
    length 4.48604
    axis -119.517 0.106469 35.1736 xyz
    dof rx ry rz
  end
  begin
    id 13
    name LeftArm
    direction 0.380567 -0.703221 -0.600541
    length 10.1142
    axis -5.41825 36.2925 7.8293 xyz
    dof rx ry rz
  end
  begin
    id 14
    name LeftForeArm
    direction 0.541071 -0.732356 -0.413396
    length 9.39839
    axis 4.65387 33.7604 7.81644 xyz
    dof rx ry rz
  end
  begin
    id 15
    name LeftHand
    direction 0.847511 -0.389379 -0.360707
    length 3.66142
    axis 7.65593 21.1436 -24.6758 xyz
    dof rx ry rz
  end
  begin
    id 16
    name RightShoulderDummy
    direction -0.692546 0.541855 0.476208
    length 2.49352
    axis 42.8809 47.8308 -3.36039 xyz
  end
  begin
    id 17
    name RightShoulder
    direction -0.870808 -0.316653 0.376065
    length 4.48602
    axis 141.571 51.133 -100.254 xyz
    dof rx ry rz
  end
  begin
    id 18
    name RightArm
    direction 0.366897 -0.87275 0.322015
    length 10.1142
    axis 92.3258 71.2036 138.917 xyz
    dof rx ry rz
  end
  begin
    id 19
    name RightForeArm
    direction 0.702487 -0.694568 0.155197
    length 9.39835
    axis 153.863 41.5092 -176.604 xyz
    dof rx ry rz
  end
  begin
    id 20
    name RightHand
    direction 0.79502 -0.601276 0.0800636
    length 3.66142
    axis 154.247 4.59222 142.9 xyz
    dof rx ry rz
  end
  begin
    id 21
    name LeftUpLegDummy
    direction 0.65628 -0.754516 0.00165102
    length 4.76919
    axis 0 0 0 xyz
  end
  begin
    id 22
    name LeftUpLeg
    direction -0.1277 -0.689368 0.713067
    length 17.9961
    axis -48.3385 -17.8675 0.791927 xyz
    dof rx ry rz
  end
  begin
    id 23
    name LeftLeg
    direction 0.109849 -0.991246 -0.0732378
    length 13.3386
    axis -2.05791 -7.30784 1.72042 xyz
    dof rx ry rz
  end
  begin
    id 24
    name LeftFoot
    direction 0.0448355 -0.272614 0.961078
    length 5.86697
    axis -18.7733 -7.89606 10.2113 xyz
    dof rx ry rz
  end
  begin
    id 25
    name LeftToes
    direction -0.18506 0.293668 0.937823
    length 4.75197
    axis 71.2267 -7.89606 10.2113 xyz
    dof rx ry rz
  end
:hierarchy
  begin
    root RightUpLegDummy SpineDummy LeftUpLegDummy
    RightUpLegDummy RightUpLeg
    RightUpLeg RightLeg
    RightLeg RightFoot
    RightFoot RightToes
    SpineDummy Spine
    Spine Spine1
    Spine1 HEadDummy LeftShoulder1Dummy RightShoulderDummy
    HEadDummy HEad
    LeftShoulder1Dummy LeftShoulder1
    LeftShoulder1 LeftArm
    LeftArm LeftForeArm
    LeftForeArm LeftHand
    RightShoulderDummy RightShoulder
    RightShoulder RightArm
    RightArm RightForeArm
    RightForeArm RightHand
    LeftUpLegDummy LeftUpLeg
    LeftUpLeg LeftLeg
    LeftLeg LeftFoot
    LeftFoot LeftToes
  end

:SAMPLES-PER-SECOND 30
:FULLY-SPECIFIED
:DEGREES
403
root  -11.697 34.8605 -2.69253 -151.552 -38.085 -72.5628
RightUpLeg  -14.3531 18.1528 -50.9327
RightLeg  -37.0765 -39.2984 11.1146
RightFoot  2.20512 8.40447 -19.9696
RightToes  -1.27222e-014 -6.36111e-015 6.36111e-015
Spine  5.33454 6.16351 11.0238
Spine1  -12.683 -7.20588 -13.9033
HEad  4.86791 -29.5753 7.1234
LeftShoulder1  6.36111e-015 -1.33558e-015 6.49777e-015
LeftArm  -88.4206 -23.144 75.2178
LeftForeArm  12.2402 -7.50406 -8.2026
LeftHand  17.4663 24.9881 21.6031
RightShoulder  -4.77083e-015 -6.36111e-015 -3.18055e-015
RightArm  3.12052 34.6073 -42.7005
RightForeArm  -30.7578 -6.63866 -12.3118
RightHand  -1.25743 -3.32617 11.7833
LeftUpLeg  -11.4323 41.9869 48.8665
LeftLeg  -31.8914 -4.52798 -4.55175
LeftFoot  8.22747 5.83786 -15.515
LeftToes  9.54166e-015 -1.91609e-011 -2.3878e-011
404
root  -10.2978 34.0022 -0.738113 -167.798 -24.7006 -57.756
RightUpLeg  -12.5508 22.5687 -49.8056
RightLeg  -36.1298 -41.3491 11.5156
RightFoot  1.76229 9.49695 -22.4455
RightToes  -1.27222e-014 -6.36111e-015 6.36111e-015
Spine  6.89189 7.23454 12.5296
Spine1  -14.4981 -7.02794 -13.4013
HEad  7.12075 -28.4489 6.63837
LeftShoulder1  6.36111e-015 -1.33558e-015 6.49777e-015
LeftArm  -84.9128 -22.8877 80.8667
LeftForeArm  18.0292 -14.5729 -11.7748
LeftHand  13.9312 24.0281 13.6117
RightShoulder  -4.77083e-015 -6.36111e-015 -3.18055e-015
RightArm  12.0646 35.9304 -49.1511
RightForeArm  -44.1922 -0.0129957 -19.2647
RightHand  1.50976 -8.04856 -0.593051
LeftUpLeg  -23.2741 49.0309 37.2511
LeftLeg  -25.9968 -5.95401 -1.96852
LeftFoot  5.02386 5.01585 -14.5325
LeftToes  9.54166e-015 -1.91609e-011 -2.3878e-011
405
root  -8.02745 33.1661 0.283414 -178.963 -8.54955 -48.1363
RightUpLeg  -9.68251 24.0644 -47.33
RightLeg  -36.587 -39.7617 11.0645
RightFoot  3.03784 9.17167 -21.7783
RightToes  -1.27222e-014 -6.36111e-015 6.36111e-015
Spine  7.17455 8.11286 14.5926
Spine1  -15.0325 -7.16641 -12.9149
HEad  10.4447 -29.8674 5.46073
LeftShoulder1  6.36111e-015 -1.33558e-015 6.49777e-015
LeftArm  -78.3188 -27.6534 89.4953
LeftForeArm  22.0111 -18.9735 -12.9432
LeftHand  8.91419 15.4837 11.6903
RightShoulder  -4.77083e-015 -6.36111e-015 -3.18055e-015
RightArm  16.716 33.4939 -56.2444
RightForeArm  -53.9203 -1.33225 -18.3284
RightHand  5.54011 -11.2107 -15.444
LeftUpLeg  -26.944 48.5669 31.5252
LeftLeg  -18.1756 -3.6311 -2.02415
LeftFoot  2.34294 4.63681 -14.4999
LeftToes  9.54166e-015 -1.91609e-011 -2.3878e-011
406
root  -5.60274 32.538 -0.0921769 173.194 9.90189 -43.3
RightUpLeg  -3.8965 24.1514 -44.1633
RightLeg  -41.0737 -27.795 6.69869
RightFoot  5.9457 6.88457 -17.177
RightToes  -1.27222e-014 -6.36111e-015 6.36111e-015
Spine  5.43663 8.16952 15.253
Spine1  -14.81 -7.56043 -9.62109
HEad  16.0748 -35.3378 1.1443
LeftShoulder1  6.36111e-015 -1.33558e-015 6.49777e-015
LeftArm  -69.5969 -31.3577 93.4744
LeftForeArm  30.593 -28.1418 -18.8257
LeftHand  10.1879 14.9242 17.6644
RightShoulder  -4.77083e-015 -6.36111e-015 -3.18055e-015
RightArm  18.1831 25.1547 -63.4621
RightForeArm  -57.7327 -2.25832 -16.925
RightHand  7.66574 -9.98133 -25.9777
LeftUpLeg  -20.0234 49.2931 33.6747
LeftLeg  -14.7444 -3.85355 -1.70079
LeftFoot  4.0888 5.0962 -15.15
LeftToes  9.54166e-015 -1.91609e-011 -2.3878e-011
